<svg width="1600" height="720" viewBox="0 0 1600 720" fill="none" xmlns="http://www.w3.org/2000/svg">
  <rect width="1600" height="720" rx="36" fill="#07111F"/>
  <rect x="48" y="48" width="1504" height="624" rx="32" fill="url(#paint0_linear)" stroke="#173A60"/>
  <text x="110" y="170" fill="#8CD3FF" font-family="Arial, sans-serif" font-size="28" font-weight="700">Python Real-Estate Data Library</text>
  <text x="110" y="260" fill="#FFFFFF" font-family="Arial, sans-serif" font-size="74" font-weight="700">HomeHarvest</text>
  <text x="110" y="330" fill="#D9E7F5" font-family="Arial, sans-serif" font-size="30">Collect listing data, structure it cleanly, and export it for real analysis.</text>
  <rect x="110" y="392" width="250" height="58" rx="29" fill="#1EE7D4"/>
  <text x="160" y="429" fill="#04101F" font-family="Arial, sans-serif" font-size="24" font-weight="700">Realtor.com Data</text>
  <rect x="384" y="392" width="214" height="58" rx="29" fill="#153252"/>
  <text x="447" y="429" fill="#DDEBFA" font-family="Arial, sans-serif" font-size="24" font-weight="700">CSV Ready</text>
  <rect x="622" y="392" width="258" height="58" rx="29" fill="#153252"/>
  <text x="678" y="429" fill="#DDEBFA" font-family="Arial, sans-serif" font-size="24" font-weight="700">Pydantic Models</text>
  <rect x="972" y="158" width="470" height="364" rx="28" fill="#0E223E" stroke="#1A4268"/>
  <text x="1016" y="220" fill="#8CD3FF" font-family="Arial, sans-serif" font-size="22" font-weight="700">Workflow</text>
  <text x="1016" y="282" fill="#FFFFFF" font-family="Arial, sans-serif" font-size="28" font-weight="700">Search</text>
  <text x="1016" y="336" fill="#FFFFFF" font-family="Arial, sans-serif" font-size="28" font-weight="700">Collect</text>
  <text x="1016" y="390" fill="#FFFFFF" font-family="Arial, sans-serif" font-size="28" font-weight="700">Normalize</text>
  <text x="1016" y="444" fill="#FFFFFF" font-family="Arial, sans-serif" font-size="28" font-weight="700">Export</text>
  <path d="M1146 275H1348" stroke="#1EE7D4" stroke-width="10" stroke-linecap="round"/>
  <path d="M1146 329H1316" stroke="#2E5B85" stroke-width="10" stroke-linecap="round"/>
  <path d="M1146 383H1368" stroke="#1EE7D4" stroke-width="10" stroke-linecap="round"/>
  <path d="M1146 437H1290" stroke="#2E5B85" stroke-width="10" stroke-linecap="round"/>
  <defs>
    <linearGradient id="paint0_linear" x1="800" y1="48" x2="800" y2="672" gradientUnits="userSpaceOnUse">
      <stop stop-color="#0B2344"/>
      <stop offset="1" stop-color="#081426"/>
    </linearGradient>
  </defs>
</svg>
