<svg width="1600" height="960" viewBox="0 0 1600 960" fill="none" xmlns="http://www.w3.org/2000/svg">
  <rect width="1600" height="960" rx="36" fill="#061126"/>
  <rect x="50" y="50" width="1500" height="860" rx="30" fill="#0A1730" stroke="#16395D"/>
  <text x="112" y="138" fill="#FFFFFF" font-family="Arial, sans-serif" font-size="34" font-weight="700">Search and Filter Workflow</text>
  <rect x="112" y="206" width="390" height="644" rx="28" fill="#102346"/>
  <text x="146" y="258" fill="#8CD3FF" font-family="Arial, sans-serif" font-size="22" font-weight="700">Input</text>
  <rect x="146" y="292" width="322" height="92" rx="20" fill="#0C1B37" stroke="#1D345B"/>
  <text x="178" y="332" fill="#8CD3FF" font-family="Arial, sans-serif" font-size="18">Location</text>
  <text x="178" y="360" fill="#FFFFFF" font-family="Arial, sans-serif" font-size="26" font-weight="700">San Diego, CA</text>
  <rect x="146" y="408" width="322" height="92" rx="20" fill="#0C1B37" stroke="#1D345B"/>
  <text x="178" y="448" fill="#8CD3FF" font-family="Arial, sans-serif" font-size="18">Listing Type</text>
  <text x="178" y="476" fill="#FFFFFF" font-family="Arial, sans-serif" font-size="26" font-weight="700">Sold</text>
  <rect x="146" y="524" width="322" height="92" rx="20" fill="#0C1B37" stroke="#1D345B"/>
  <text x="178" y="564" fill="#8CD3FF" font-family="Arial, sans-serif" font-size="18">Filters</text>
  <text x="178" y="592" fill="#FFFFFF" font-family="Arial, sans-serif" font-size="26" font-weight="700">Beds, Baths, Price</text>
  <rect x="146" y="640" width="322" height="92" rx="20" fill="#0C1B37" stroke="#1D345B"/>
  <text x="178" y="680" fill="#8CD3FF" font-family="Arial, sans-serif" font-size="18">Time Window</text>
  <text x="178" y="708" fill="#FFFFFF" font-family="Arial, sans-serif" font-size="26" font-weight="700">Past 30 Days</text>
  <rect x="548" y="206" width="890" height="644" rx="28" fill="#0E223E"/>
  <text x="586" y="258" fill="#8CD3FF" font-family="Arial, sans-serif" font-size="22" font-weight="700">Scrape Preview</text>
  <rect x="586" y="300" width="384" height="220" rx="22" fill="#102346"/>
  <text x="620" y="354" fill="#FFFFFF" font-family="Arial, sans-serif" font-size="30" font-weight="700">1,284 results found</text>
  <text x="620" y="406" fill="#D8E5F2" font-family="Arial, sans-serif" font-size="20">Address, price, beds, baths, sqft, source link</text>
  <rect x="620" y="446" width="184" height="46" rx="23" fill="#1EE7D4" fill-opacity="0.18"/>
  <text x="656" y="476" fill="#9FFFF2" font-family="Arial, sans-serif" font-size="18" font-weight="700">Analysis Ready</text>
  <rect x="998" y="300" width="404" height="220" rx="22" fill="#102346"/>
  <text x="1032" y="354" fill="#FFFFFF" font-family="Arial, sans-serif" font-size="30" font-weight="700">Flexible Filters</text>
  <text x="1032" y="406" fill="#D8E5F2" font-family="Arial, sans-serif" font-size="20">Works for investor scans, comps, prospecting, and research exports</text>
  <rect x="586" y="560" width="816" height="238" rx="22" fill="#102346"/>
  <path d="M632 728C700 662 760 626 838 642C916 658 952 724 1020 732C1102 742 1158 666 1220 632C1272 604 1326 606 1378 636" stroke="#1EE7D4" stroke-width="10" stroke-linecap="round"/>
  <circle cx="838" cy="642" r="10" fill="#1EE7D4"/>
  <circle cx="1020" cy="732" r="10" fill="#1EE7D4"/>
  <circle cx="1220" cy="632" r="10" fill="#1EE7D4"/>
</svg>
